# xmcd CD database file
#
# Track frame offsets:
#	150
#	18552
#	37519
#	63367
#
# Disc length: 1146 seconds
#
# Revision: 2
# Processed by: cddbd v1.5.2PL0 Copyright (c) Steve Scherf et al.
# Submitted via: CDex 1.51
#
DISCID=24047804
DTITLE=Various Artist - STTW-44
DYEAR=1900
DGENRE=Blues
TTITLE0=Freddie Mcgregor - Just Don' Wanna Be Lonely
TTITLE1=Midge Ure - No Regrets
TTITLE2=Judy Boucher - Can't Be With You Tonight
TTITLE3=John Farnham - You're The Voice
EXTD=
EXTT0=
EXTT1=
EXTT2=
EXTT3=
PLAYORDER=
